<svg width="151" height="151" viewBox="0 0 151 151" fill="none" xmlns="http://www.w3.org/2000/svg">
<rect width="151" height="151" rx="16" fill="url(#paint0_linear_3943_34906)"/>
<path d="M29.1255 91.0176C29.1255 96.7473 33.7812 101.387 39.5268 101.387H80.7088C80.4601 97.6361 78.5502 93.9909 75.1166 92.2767C74.6775 92.0598 71.6301 91.0176 71.4079 91.0176H29.1255Z" fill="white"/>
<path d="M28.6279 70.7339V81.0823H80.1107C80.2218 77.6328 80.3805 74.1569 80.4493 70.7339H28.6279Z" fill="white"/>
<path d="M29.1255 60.3696H72.3073C75.3494 60.3696 80.3226 55.1425 80.5659 51.9259C80.5395 51.2857 80.513 50.6455 80.5024 50.0054H39.5215C33.7812 50.0054 29.1255 54.6452 29.1255 60.3696Z" fill="white"/>
<mask id="mask0_3943_34906" style="mask-type:luminance" maskUnits="userSpaceOnUse" x="7" y="50" width="136" height="52">
<path d="M143 50H7V101.68H143V50Z" fill="white"/>
</mask>
<g mask="url(#mask0_3943_34906)">
<path d="M84.6489 60.3695C84.8447 58.6236 85.1357 57.1422 85.5377 56.2005C86.6064 53.698 91.077 49.9946 93.7805 49.9946H136.063C136.063 55.7243 131.402 60.3642 125.662 60.3642H84.6489V60.3695Z" fill="white"/>
<path d="M136.057 91.0229C135.935 92.6525 135.755 94.0016 135.501 94.7475C134.639 97.3399 130.486 101.387 127.693 101.387H84.5107C84.5107 95.6628 89.1665 91.0229 94.9068 91.0229H136.052H136.057Z" fill="white"/>
<path d="M85.1991 73.8818C84.9451 73.1199 84.7547 72.0195 84.6118 70.7339H128.148C130.793 70.7339 134.899 75.141 135.629 77.7016C135.83 78.4 135.978 79.6168 136.084 81.0876H94.2566C90.5108 80.8336 86.3418 77.3789 85.2044 73.8871L85.1991 73.8818Z" fill="white"/>
<path d="M22.9633 70.7339H12.562V101.382H22.9633V70.7339Z" fill="white"/>
<path d="M22.9575 60.3587H16.54C14.3391 60.3587 12.5562 58.581 12.5562 56.3907V50.0103H18.9736C21.1745 50.0103 22.9575 51.7826 22.9575 53.9835V60.3639V60.3587Z" fill="white"/>
</g>
<defs>
<linearGradient id="paint0_linear_3943_34906" x1="75.5" y1="-16.8423" x2="75.5" y2="151" gradientUnits="userSpaceOnUse">
<stop stop-color="#2A666F"/>
<stop offset="1" stop-color="#091A1C"/>
</linearGradient>
</defs>
</svg>
